# xmcd
#
# Track frame offsets:
# 150
# 18330
# 36319
# 55558
# 69479
# 86179
# 102900
# 120081
# 140484
# 155955
# 173989
#
# Disc length: 2534 seconds
#
#
# Revision: 0
# Processed by: cddbd v1.5.2PL0 Copyright (c) Steve Scherf et al.
# Submitted via: FreeRIP 2.90 
#
DISCID=9009e40b
DTITLE=Jason Aldean - Wide Open
DYEAR=2009
DGENRE=Country
TTITLE0=Wide Open
TTITLE1=This I Gotta See
TTITLE2=Fast
TTITLE3=Crazy Town
TTITLE4=Don't Give Up On Me
TTITLE5=She's Country
TTITLE6=On My Highway
TTITLE7=Keep the Girl
TTITLE8=Big Green Tractor
TTITLE9=The Truth
TTITLE10=Love Was Easy
EXTD=
EXTT0=
EXTT1=
EXTT2=
EXTT3=
EXTT4=
EXTT5=
EXTT6=
EXTT7=
EXTT8=
EXTT9=
EXTT10=
PLAYORDER=
